**ABCDEFGHIJKLMNOPQRSTUVWXYZabcdefghijklmnopqrstuvwxyz**************************
**PARASOLID !"#$%&'()*+,-./:;<=>?@[\]^_`{|}~0123456789**************************
**PART1;
MC=AMD64;
MC_MODEL=Intel64 Family 6 Model 69 Stepping 1, GenuineIntel;
MC_ID=unknown;
OS=Windows_NT;
OS_RELEASE=unknown;
FRU=Parasolid Version 35.1, build 251, 11- 4-2023;
APPL=SOLIDWORKS 2024-2024016;
SITE=;
USER=unknown;
FORMAT=text;
GUISE=transmit;
KEY=arm;
FILE=arm.x_t;
DATE=Sun Jan 26 16:16:15 2025;
**PART2;
SCH=SCH_3501251_35102;
USFLD_SIZE=0;
**PART3;
**END_OF_HEADER*****************************************************************
T51 : TRANSMIT FILE created by modeller version 350125123 SCH_3501251_35102_1300
6231 0 12 36 CCCI7 lattice222 0 CCCI4 mesh1006 0 I8 polyline1008 0 CCCCCCCDI5 ow
ner1040 0 CCCI16 boundary_lattice222 0 CCCI13 boundary_mesh1006 0 I17 boundary_p
olyline1008 0 CCCA16 index_map_offset0 0 1 dA9 index_map82 0 A17 node_id_index_m
ap82 0 A20 schema_embedding_map82 0 A5 child12 0 A14 lowest_node_id0 0 1 dA16 me
sh_offset_data206 0 Z1 416 2 3 0 0 0 0 0 0 0 1e3 1e-8 0 4 0 1 0 1 1 5 0 6 7 8 0
 0 9 10 11 0 0 0 0 0 0 0 81 255 2 2 396 12 1 13 0 0 0 0 14 70 11 CI9 list_type0
 0 1 uI10 notransmit0 0 1 lCCCDCCDI12 finger_index0 0 1 dI12 finger_block1012 0
 CZ3 0 4 T1 0 0 12 20 1 15 15 13 255 5 99 0 1 0 16 0 0 17 0 51 255 6 310 0 18 19
 0 0 +.002 .004 .007 0 1 0 .007 0 0 1 30 255 7 264 0 10 20 0 0 +.009 .004 .007 0
 1 0 29 255 8 249 0 11 21 0 .009 .004 .007 19 9 CCCCCCI5 frame230 0 CA5 owner12
 0 Z9 33 0 1 17 0 22 0 V0 16 255 10 262 0 ?23 0 24 7 0 0 1 18 255 11 247 0 25 0
 26 8 ?1 17 255 25 0 27 28 29 11 30 31 0 23 -18 26 232 0 32 11 33 21 ?1 17 32 0
 34 35 36 26 37 38 0 39 +18 33 229 0 30 26 40 41 ?1 29 21 234 0 26 41 8 -.002 .0
04 0 29 41 231 0 33 42 21 .002 .004 0 29 42 216 0 40 43 41 .009 -.004 .007 18 40
 214 0 44 33 45 42 ?1 29 43 213 0 45 46 42 .002 -.004 0 18 45 211 0 47 40 48 43
 ?1 29 46 210 0 48 49 43 -.002 -.004 0 18 48 208 0 50 45 51 46 ?1 29 49 201 0 51
 52 46 -.009 .004 .007 18 51 199 0 53 48 54 49 ?1 29 52 198 0 54 55 49 -.009 -.0
04 .007 18 54 196 0 56 51 57 52 ?1 29 55 32 0 57 58 52 .009 -.004 .11 18 57 30 0
 59 54 60 55 ?1 29 58 29 0 60 61 55 -.009 -.004 .11 18 60 27 0 62 57 63 58 ?1 29
 61 26 0 63 64 58 -.009 .004 .11 18 63 24 0 65 60 66 61 ?1 29 64 23 0 66 0 61 .0
09 .004 .11 18 66 21 0 67 63 0 64 ?1 17 67 0 68 69 70 66 65 71 0 72 -15 255 68 8
7 0 39 73 0 17 69 0 68 30 67 11 74 75 0 0 +17 70 0 68 67 53 63 76 77 0 78 -17 65
 0 79 62 72 63 67 71 0 70 +16 71 9 0 ?65 80 81 82 0 0 1 17 72 0 79 65 59 66 83 8
1 0 74 +15 79 4 0 72 84 0 17 59 0 79 72 62 57 85 86 0 87 +17 83 0 88 89 74 57 72
 81 0 0 -16 81 5 0 ?72 71 90 91 0 0 1 17 74 0 88 83 23 66 69 75 0 0 -15 88 89 0
 89 16 0 17 23 0 88 74 89 11 28 10 0 69 +16 75 82 0 ?69 92 77 93 0 0 1 16 92 144
 0 ?94 95 75 96 0 0 1 16 77 81 0 ?76 75 97 98 0 0 1 30 93 98 0 75 98 96 0 +.009
 .004 .11 0 0 -1 30 98 97 0 77 99 93 0 +-.009 .004 .11 0 0 -1 31 255 96 147 0 92
 93 100 0 -0 -.004 .008 0 1 0 0 0 1 .005 30 100 204 0 95 96 101 0 +-.009 .004 .0
07 216840434497101e-30 -1 0 16 95 202 0 ?102 103 92 100 0 0 1 31 101 219 0 103 1
00 104 0 -.002 -.004 .007 0 1 0 0 0 1 .007 16 103 217 0 ?44 105 95 101 0 0 1 31
 104 225 0 105 101 106 0 --.002 -.004 .007 0 1 0 0 0 1 .007 16 105 223 0 ?50 107
 103 104 0 0 1 30 106 237 0 107 104 108 0 -.002 0 0 0 1 0 16 107 235 0 ?47 38 10
5 106 0 0 1 30 108 243 0 38 106 109 0 --.002 -433680868994201e-33 0 216840434497
101e-30 -1 0 16 38 241 0 ?32 31 107 108 0 0 1 31 109 252 0 31 108 20 0 -.002 .00
4 .007 0 -1 0 0 0 -1 .007 16 31 250 0 ?30 24 38 109 0 0 1 31 20 258 0 24 109 7 0
 --.002 .004 .007 0 -1 0 0 0 -1 .007 16 24 256 0 ?53 10 31 20 0 0 1 17 53 0 68 7
0 39 51 110 24 0 76 +17 39 0 68 53 30 26 35 111 0 110 +17 110 0 112 37 113 26 53
 24 0 0 -17 76 0 114 102 78 51 70 77 0 113 +15 114 85 0 76 115 0 17 102 0 114 11
6 76 54 113 95 0 117 +17 78 0 114 76 116 63 62 80 0 0 -17 113 0 112 110 56 51 10
2 95 0 0 -15 112 278 0 110 118 0 17 56 0 112 113 37 54 50 105 0 102 -17 37 0 112
 56 110 48 32 38 0 0 -17 50 0 119 120 117 48 56 105 0 36 +15 119 83 0 117 121 0
 17 120 0 119 44 50 45 36 90 0 122 +17 117 0 119 50 85 54 116 97 0 0 +17 36 0 34
 32 47 48 120 90 0 37 -15 34 49 0 36 123 0 17 47 0 34 36 35 45 29 107 0 120 +16
 90 209 0 ?120 81 111 124 0 0 1 16 111 230 0 ?39 90 125 126 0 0 1 30 124 71 0 90
 126 127 0 +-.009 -.004 0 1 0 0 30 126 73 0 111 128 124 0 +-.009 .004 0 -1 0 0 3
0 127 95 0 129 124 99 0 +.009 -.004 .11 0 0 -1 16 129 79 0 ?89 97 86 127 0 0 1 3
0 99 96 0 97 127 98 0 +-.009 -.004 .11 0 0 -1 16 97 80 0 ?117 77 129 99 0 0 1 17
 89 0 88 23 83 40 87 129 0 28 +16 86 17 0 ?59 129 80 128 0 0 1 16 80 13 0 ?62 86
 71 130 0 0 1 30 128 19 0 86 130 126 0 +-.009 -.004 .11 1 0 0 30 130 15 0 80 82
 128 0 +-.009 .004 .11 216840434497101e-30 -1 0 30 82 11 0 71 91 130 0 +-.009 .0
04 .11 -1 0 0 30 91 7 0 81 131 82 0 +.009 .004 .11 0 1 0 31 131 178 0 125 0 91 0
 +0 -.014 .008 0 -1 0 0 0 -1 .005 16 125 156 0 ?132 111 0 131 0 0 1 17 132 0 133
 132 132 0 134 125 0 0 +15 133 167 0 132 135 0 17 134 0 136 134 134 0 132 125 0
 0 -15 136 162 0 134 137 138 14 255 137 159 139 ?135 123 136 5 140 -0 0 135 123
 22 15 138 163 0 94 137 0 17 94 0 138 94 94 0 141 92 0 0 +17 141 0 142 141 141 0
 94 92 0 0 -15 142 146 0 141 121 119 14 121 84 143 ?84 115 142 5 144 -0 0 84 115
 22 81 1 143 400 145 121 146 0 139 147 148 14 84 1 147 ?123 121 79 5 149 +0 0 12
3 121 22 14 115 86 150 ?121 73 114 5 151 -0 0 121 73 22 50 255 144 91 0 121 152
 151 0 +-.009 -.004 .11 0 1 0 0 0 1 13 22 34 0 0 0 0 0 0 9 16 14 16 90 153 ?73 0
 88 5 154 -0 0 73 0 22 81 1 153 406 145 16 155 0 150 156 157 14 73 88 156 ?115 1
6 68 5 158 -0 0 115 16 22 50 154 94 0 16 158 19 0 +.009 .004 .11 -1 0 0 0 0 1 50
 158 93 0 73 151 154 0 +-.009 .004 .11 0 -1 0 0 0 -1 51 19 289 0 118 154 6 0 +-.
002 .004 .007 216840434497101e-30 -1 0 .007 1 216840434497101e-30 0 14 118 277 1
59 ?18 135 112 5 19 +0 0 18 135 22 81 1 159 410 145 118 160 0 156 161 162 14 18
 298 161 ?0 118 27 5 6 +0 0 0 118 22 14 135 164 163 ?118 137 133 5 164 +0 0 118
 137 22 81 1 163 414 145 135 165 0 161 166 167 50 164 176 0 135 0 140 0 +0 -.014
 0 0 -1 0 0 0 -1 51 140 174 0 137 164 149 0 -0 -.014 .008 0 1 0 .005 0 0 1 50 14
9 3 0 84 140 152 0 +0 0 .11 0 0 1 1 0 0 50 152 70 0 123 149 144 0 +0 0 0 0 0 1 1
 0 0 14 123 48 166 ?137 84 34 5 152 -0 0 137 84 22 81 1 166 416 145 123 168 0 16
3 0 169 80 7 CCCCCDI12 legal_owners0 16 1 lCZ1 145 170 171 9000 1 1 1 1 1 1 1 1
 0 FFFFTFTFFFFFFFFF1 81 3 168 415 172 123 173 166 165 0 174 0 0 82 255 1 169 303
235188 80 3 172 175 176 9000 0 0 0 0 3 5 0 0 0 FFFFTFFFFFFFFFFF1 1 1 81 1 173 36
0 177 123 0 168 178 179 180 81 3 165 413 172 135 181 163 182 168 183 0 0 82 6 17
4 0 552172950 31158260 0 0 0 81 1 181 362 177 135 0 165 179 184 185 81 3 182 411
 172 18 186 161 160 165 187 0 0 82 6 183 0 -258714367 31158259 0 0 0 81 1 186 36
4 177 18 0 182 184 0 188 81 1 161 412 145 18 182 0 159 163 189 81 3 160 409 172
 118 184 159 190 182 191 0 0 82 6 187 0 552172950 31158260 0 0 0 81 1 184 363 17
7 118 0 160 181 186 192 81 3 190 407 172 73 193 156 155 160 194 0 0 82 6 191 0 5
52172950 31158260 0 0 0 81 1 193 356 177 73 0 190 195 196 197 81 1 156 408 145 7
3 190 0 153 159 198 81 3 155 405 172 16 195 153 199 190 200 0 0 82 6 194 0 55217
2950 31158260 0 0 0 81 1 195 355 177 16 0 155 0 193 201 81 3 199 403 172 115 196
 150 202 155 203 0 0 82 6 200 0 552172950 31158260 0 0 0 81 1 196 357 177 115 0
 199 193 204 205 81 1 150 404 145 115 199 0 147 153 206 81 3 202 401 172 84 178
 147 146 199 207 0 0 82 6 203 0 552172950 31158260 0 0 0 81 1 178 359 177 84 0 2
02 204 173 208 81 1 147 402 145 84 202 0 143 150 209 81 3 146 399 172 121 204 14
3 210 202 211 0 0 82 6 207 0 -1359529138 31158258 0 0 0 81 1 204 358 177 121 0 1
46 196 178 212 81 3 210 397 172 137 179 139 0 146 213 0 0 82 6 211 0 552172950 3
1158260 0 0 0 81 1 179 361 177 137 0 210 173 181 214 81 1 139 398 145 137 210 0
 0 143 215 82 6 213 0 -258714367 31158259 0 0 0 82 1 215 -2065235854 80 1 177 0
 216 8001 0 0 0 0 3 5 0 0 0 FFFFTFTFFFFFFFFF2 83 255 3 214 .792156862745098 .819
607843137255 .933333333333333 79 255 15 216 SDL/TYSA_COLOUR83 3 212 .79215686274
5098 .819607843137255 .933333333333333 82 1 209 297599079 83 3 208 .792156862745
098 .819607843137255 .933333333333333 82 1 206 304414836 83 3 205 .7921568627450
98 .819607843137255 .933333333333333 83 3 201 .792156862745098 .819607843137255
 .933333333333333 82 1 198 304676980 83 3 197 .792156862745098 .819607843137255
 .933333333333333 83 3 192 .792156862745098 .819607843137255 .933333333333333 82
 1 189 -1020854156 83 3 188 .792156862745098 .819607843137255 .933333333333333 8
3 3 185 .792156862745098 .819607843137255 .933333333333333 83 3 180 .79215686274
5098 .819607843137255 .933333333333333 79 18 176 DOWNSTREAM_FACE_ID79 14 171 SWE
ntUnchanged82 1 167 -2067726222 15 27 299 0 122 18 0 17 122 0 27 29 28 45 44 103
 0 0 -17 29 0 27 25 122 33 47 107 0 0 -17 28 0 27 122 25 40 23 10 0 0 -17 44 0 1
19 87 120 40 122 103 0 89 +17 87 0 119 85 44 57 89 129 0 83 -17 85 0 119 117 87
 60 59 86 0 0 -82 1 162 -1022820236 50 151 92 0 115 144 158 0 +-.009 .004 .11 1
 216840434497101e-30 0 -216840434497101e-30 1 0 82 1 157 304939124 82 1 148 3041
52692 17 62 0 79 59 65 60 78 80 0 116 +17 116 0 114 78 102 60 117 97 0 85 -17 35
 0 34 47 32 33 39 111 0 29 -17 30 0 68 39 69 33 25 31 0 35 +19 17 100 0 1 0 9 5
 0 S0 74 4 CI16 index_map_offset0 0 1 dCCZ20 15 12 0 0 168 166 217 218 219 220 2
21 222 223 13 186 2 0 0 0 0 0 0 0 0 81 5 217 151 224 1 0 218 0 0 225 0 0 0 0 81
 2 218 181 226 1 217 219 0 0 0 227 81 2 219 187 228 1 218 220 0 0 0 229 81 2 220
 188 230 1 219 221 0 0 231 0 81 1 221 329 232 1 220 222 0 0 233 81 2 222 331 234
 1 221 223 0 0 0 0 81 2 223 343 235 1 222 13 0 0 236 0 81 2 13 354 237 1 223 2 0
 0 0 238 80 2 237 239 240 9000 0 0 0 0 3 5 0 0 0 FFTFFFFFFFFFFFFF9 1 82 1 238 1
 79 24 240 BODY_IN_LIGHTWEIGHT_PERM80 2 235 241 242 8004 0 0 0 0 3 5 0 0 0 FFTFF
FFFFFFFFFFF2 3 83 1 236 1 79 16 242 SDL/TYSA_DENSITY80 2 234 243 244 9000 0 0 0
 0 3 5 0 0 0 FFTFFFFFFFFFFFFF9 1 79 16 244 BODY_RECIPE_200180 1 232 245 246 9000
 1 1 1 1 1 1 1 1 0 FFTFFFFFFFFFFFFF1 82 1 233 4539 79 10 246 BODY_MATCH80 2 230
 247 248 9000 0 0 0 0 3 5 0 0 0 FFTFTTTFFTFFFFFF10 10 98 255 7 231 70 105 108 10
8 101 116 50 79 23 248 SWIMPLICITBODYNAME_ID_U80 2 228 249 250 9000 0 0 0 0 3 5
 0 0 0 FFTFFFFFFFFFFFFF9 1 82 1 229 55 79 30 250 LAST_BODY_MODIFYING_FEATURE_ID8
0 2 226 251 252 9000 0 0 0 0 3 5 0 0 0 FFTFFFFFFFFFFFFF9 1 82 1 227 114 79 19 25
2 ENT_TIME_STAMP_200180 5 224 253 254 9000 0 0 0 0 3 6 0 0 0 FFTTTTTTFTTFTTFF2 2
 2 2 2 83 1 225 1 79 19 254 BODY_SCALING_FACTOR80 2 12 255 256 9000 0 0 0 0 3 5
 0 0 0 FFTFFFFFFFFFFFFF9 1 82 1 14 102 79 12 256 ATOM_ID_20011 0 
