**ABCDEFGHIJKLMNOPQRSTUVWXYZabcdefghijklmnopqrstuvwxyz**************************
**PARASOLID !"#$%&'()*+,-./:;<=>?@[\]^_`{|}~0123456789**************************
**PART1;
MC=AMD64;
MC_MODEL=Intel64 Family 6 Model 69 Stepping 1, GenuineIntel;
MC_ID=unknown;
OS=Windows_NT;
OS_RELEASE=unknown;
FRU=Parasolid Version 35.1, build 251, 11- 4-2023;
APPL=SOLIDWORKS 2024-2024016;
SITE=;
USER=unknown;
FORMAT=text;
GUISE=transmit;
KEY=roller;
FILE=roller.x_t;
DATE=Sun Jan 26 14:51:42 2025;
**PART2;
SCH=SCH_3501251_35102;
USFLD_SIZE=0;
**PART3;
**END_OF_HEADER*****************************************************************
T51 : TRANSMIT FILE created by modeller version 350125123 SCH_3501251_35102_1300
6231 0 12 36 CCCI7 lattice222 0 CCCI4 mesh1006 0 I8 polyline1008 0 CCCCCCCDI5 ow
ner1040 0 CCCI16 boundary_lattice222 0 CCCI13 boundary_mesh1006 0 I17 boundary_p
olyline1008 0 CCCA16 index_map_offset0 0 1 dA9 index_map82 0 A17 node_id_index_m
ap82 0 A20 schema_embedding_map82 0 A5 child12 0 A14 lowest_node_id0 0 1 dA16 me
sh_offset_data206 0 Z1 1121 2 3 0 0 0 0 0 0 0 1e3 1e-8 0 4 0 1 0 1 1 5 0 6 7 8 0
 0 9 10 11 0 0 0 0 0 0 0 81 255 2 2 1056 12 1 13 0 0 0 0 14 70 11 CI9 list_type0
 0 1 uI10 notransmit0 0 1 lCCCDCCDI12 finger_index0 0 1 dI12 finger_block1012 0
 CZ3 0 4 T1 0 0 10 20 1 15 15 13 255 5 99 0 1 0 16 0 0 17 0 51 255 6 859 0 18 19
 0 0 +-.016 .006 0 0 0 1 .004 1 0 0 30 255 7 805 0 10 20 0 0 --.016 .01 -.01 0 0
 -1 29 255 8 788 0 11 21 0 -.016 .01 -.018 19 9 CCCCCCI5 frame230 0 CA5 owner12
 0 Z9 33 0 1 17 0 22 0 V0 16 255 10 803 0 ?23 0 24 7 0 0 1 18 255 11 786 0 25 0
 26 8 ?1 17 255 25 0 27 28 29 11 30 31 0 32 +18 26 775 0 33 11 34 21 ?1 17 33 0
 35 36 37 26 38 39 0 40 +18 34 760 0 41 26 42 43 ?1 29 21 777 0 26 43 8 -.016 -.
01 -.018 29 43 762 0 34 44 21 -.016 -.01 -.01 29 44 759 0 42 45 43 -.016 .01 -.0
1 18 42 757 0 23 34 46 44 ?1 29 45 744 0 46 47 44 -.02 .006 -.01 18 46 742 0 48
 42 49 45 ?1 29 47 741 0 49 50 45 -.02 -.006 -.01 18 49 739 0 51 46 52 47 ?1 29
 50 738 0 52 53 47 -.02 -.006 -.018 18 52 736 0 54 49 55 50 ?1 29 53 735 0 55 56
 50 -.02 .006 -.018 18 55 733 0 30 52 57 53 ?1 29 56 658 0 57 58 53 .43 .01 .004
 18 57 656 0 59 55 60 56 ?1 29 58 655 0 60 61 56 .44 520417042793042e-32 .004 18
 60 653 0 62 57 63 58 ?1 29 61 644 0 63 64 58 .43 -.01 .004 18 63 642 0 65 60 66
 61 ?1 29 64 629 0 66 67 61 .43 -.01 -.004 18 66 627 0 68 63 69 64 ?1 29 67 626
 0 69 70 64 .44 520417042793042e-32 -.004 18 69 624 0 71 66 72 67 ?1 29 70 623 0
 72 73 67 .43 .01 -.004 18 72 621 0 74 69 75 70 ?1 29 73 438 0 75 76 70 .42 -.01
 -.004 18 75 436 0 77 72 78 73 ?1 29 76 432 0 78 79 73 .42 .01 .004 18 78 430 0
 80 75 81 76 ?1 29 79 429 0 81 82 76 .42 .01 -.004 18 81 427 0 83 78 84 79 ?1 29
 82 240 0 84 85 79 0 -.01 -.01 18 84 238 0 86 81 87 82 ?1 29 85 149 0 87 88 82 .
41 .01 .015 18 87 147 0 89 84 90 85 ?1 29 88 76 0 91 92 85 0 -.01 .018 18 91 67
 0 93 94 95 88 ?1 29 92 77 0 95 96 88 0 .01 .018 18 95 68 0 97 91 98 92 ?1 29 96
 32 0 90 99 92 .42 -.01 -.018 18 90 30 0 100 87 101 96 ?1 29 99 29 0 101 102 96
 .42 -.01 .018 18 101 27 0 103 90 104 99 ?1 29 102 26 0 104 105 99 .42 .01 .018
 18 104 24 0 106 101 94 102 ?1 29 105 23 0 94 107 102 .42 .01 -.018 18 94 21 0 1
08 104 91 105 ?1 29 107 213 0 98 109 105 .01 .01 .015 18 98 183 0 110 95 111 107
 ?1 29 109 214 0 111 112 107 .01 .01 -.015 18 111 184 0 113 98 114 109 ?1 29 112
 216 0 114 115 109 .41 .01 -.015 18 114 182 0 116 111 117 112 ?1 29 115 329 0 11
7 118 112 0 .01 -.01 18 117 280 0 119 114 120 115 ?1 29 118 529 0 120 0 115 .42
 -.01 .004 18 120 480 0 121 117 0 118 ?1 17 121 0 35 122 123 120 124 125 0 126 +
15 255 35 83 0 37 127 0 17 122 0 35 128 121 101 126 129 0 0 -17 123 0 35 121 130
 63 131 132 0 124 +17 124 0 133 62 134 63 121 125 0 0 -16 125 643 0 ?121 135 136
 137 0 0 1 17 126 0 138 139 103 120 122 129 0 134 +15 138 440 0 139 140 0 17 139
 0 138 106 126 78 134 141 0 142 -17 103 0 138 126 106 101 143 144 0 145 +16 129
 17 0 ?126 146 147 148 147 147 1 17 134 0 133 124 80 120 139 141 0 0 +15 133 497
 0 124 149 0 17 80 0 133 134 59 78 150 135 0 139 +16 141 458 0 ?134 136 151 152
 0 0 1 16 136 628 0 ?77 125 141 153 0 0 1 16 151 450 0 ?154 141 155 156 0 0 1 30
 152 521 0 141 156 153 0 +.42 .01 .004 0 -1 0 30 156 523 0 151 157 152 0 +.42 .0
1 -.004 0 1 0 30 153 519 0 136 152 137 0 +.44 -.01 -.004 -1 0 0 30 137 518 0 125
 153 158 0 +.44 -.01 .004 -1 0 0 30 158 517 0 135 137 159 0 +.44 .01 .004 -1 0 0
 16 135 657 0 ?80 160 125 158 0 0 1 30 159 516 0 160 158 161 0 +.44 .01 -.004 -1
 0 0 16 160 622 0 ?83 162 135 159 0 0 1 31 255 161 411 0 162 159 163 0 +-.01 260
208521396521e-32 -.01 0 0 1 1 0 0 .005 16 162 386 0 ?164 165 160 161 0 0 1 31 16
3 410 0 165 161 166 0 +-.01 260208521396521e-32 -.018 0 -3469446951953615e-31 1
 0 -1 -3469446951953615e-31 .005 16 165 382 0 ?167 168 162 163 0 0 1 30 166 327
 0 169 163 170 0 +-.02 .01 -.018 0 -1 0 16 169 734 0 ?171 172 168 166 0 0 1 30 1
70 325 0 172 166 173 0 +-.02 .01 -.01 0 1 -1734723475976805e-31 16 172 740 0 ?17
4 175 169 170 0 0 1 30 173 321 0 168 170 176 0 +0 .01 -.01 0 1 -1734723475976805
e-31 16 168 258 0 ?177 169 165 173 0 0 1 30 176 318 0 175 173 178 0 +-.02 .01 -.
01 1 0 0 16 175 758 0 ?119 179 172 176 0 0 1 30 178 317 0 179 176 180 0 +-.02 -.
01 -.01 1 0 0 16 179 761 0 ?86 181 175 178 0 0 1 31 180 212 0 182 178 183 0 +.01
 .01 3469446951953615e-33 1 0 0 0 0 -1 .015 16 182 166 0 ?184 185 181 180 0 0 1
 31 183 211 0 181 180 186 0 +.41 .01 3469446951953615e-33 1 0 0 0 0 -1 .015 16 1
81 171 0 ?187 182 179 183 0 0 1 30 186 7 0 188 183 189 0 +.42 .01 -.018 0 1 3469
446951953615e-31 16 188 5 0 ?190 191 192 186 0 0 1 30 189 11 0 193 186 194 0 +.4
2 .01 .018 0 0 1 16 193 9 0 ?195 144 191 189 191 191 1 30 194 15 0 144 189 148 0
 +.42 .01 .018 0 -1 -1734723475976805e-31 16 144 13 0 ?103 147 193 194 0 0 1 30
 148 19 0 129 194 196 0 +.42 -.01 .018 0 0 -1 30 196 73 0 185 148 197 0 +0 .01 .
018 0 0 1 16 185 242 0 ?97 198 182 196 0 0 1 30 197 72 0 198 196 199 0 +0 .01 .0
18 0 -1 -1734723475976805e-31 16 198 54 0 ?93 192 185 197 0 0 1 30 199 71 0 192
 197 200 0 +0 -.01 .018 0 0 -1 16 192 50 0 ?201 188 198 199 0 0 1 30 200 95 0 14
6 199 202 0 +.42 -.01 -.018 -1 0 0 16 146 79 0 ?40 203 129 200 0 0 1 30 202 96 0
 203 200 204 0 +.42 -.01 .018 -1 0 0 16 203 80 0 ?128 205 146 202 0 0 1 30 204 9
7 0 205 202 206 0 +.42 .01 .018 -1 0 0 16 205 81 0 ?207 208 203 204 0 0 1 30 206
 98 0 208 204 209 0 +.42 .01 -.018 -1 0 0 16 208 82 0 ?32 210 205 206 0 0 1 30 2
09 150 0 210 206 211 0 +.41 .01 .018 0 0 1 16 210 148 0 ?212 213 208 209 0 0 1 3
0 211 154 0 213 209 214 0 -.01 .01 .015 1 0 0 16 213 152 0 ?215 216 210 211 0 0
 1 30 214 158 0 216 211 217 0 +.01 .01 -.015 1 0 0 16 216 156 0 ?218 219 213 214
 0 0 1 30 217 161 0 219 214 220 0 +.01 .01 .018 0 0 1 16 219 159 0 ?110 221 216
 217 0 0 1 31 220 567 0 155 217 222 0 +.43 260208521396521e-32 .004 0 0 -1 -1 0
 0 .005 16 155 579 0 ?223 151 224 220 0 0 1 31 222 632 0 221 220 225 0 -.43 5204
17042793042e-32 -.004 0 0 1 1 0 0 .01 16 221 630 0 ?71 226 219 222 0 0 1 31 225
 638 0 226 222 227 0 -.43 3469446951953615e-33 -.004 0 0 1 1 0 0 .01 16 226 636
 0 ?68 132 221 225 0 0 1 30 227 647 0 132 225 228 0 -.43 -.01 .004 0 0 -1 16 132
 645 0 ?123 229 226 227 0 0 1 31 228 661 0 229 227 230 0 -.43 520417042793042e-3
2 .004 0 0 -1 -1 0 0 .01 16 229 659 0 ?59 231 132 228 0 0 1 31 230 667 0 231 228
 232 0 -.43 3469446951953615e-33 .004 0 0 -1 -1 0 0 .01 16 231 665 0 ?62 233 229
 230 0 0 1 30 232 673 0 233 230 234 0 -.43 .01 -.004 0 0 1 16 233 671 0 ?74 235
 231 232 0 0 1 30 234 709 0 236 232 237 0 +.44 520417042793042e-32 .004 0 0 1 16
 236 699 0 ?238 224 0 234 0 0 1 30 237 747 0 235 234 239 0 +-.02 .006 -.018 0 0
 -1 16 235 745 0 ?240 241 233 237 0 0 1 30 239 753 0 241 237 242 0 +-.02 -.006 -
.01 0 0 1 16 241 751 0 ?243 244 235 239 0 0 1 31 242 765 0 244 239 245 0 --.016
 .006 -.01 0 -1734723475976805e-31 -1 0 1 -1734723475976805e-31 .004 16 244 763
 0 ?48 246 241 242 0 0 1 31 245 771 0 246 242 247 0 --.016 -.006 -.01 0 -1734723
475976805e-31 -1 0 1 -1734723475976805e-31 .004 16 246 769 0 ?41 39 244 245 0 0
 1 30 247 780 0 39 245 248 0 --.016 -.01 -.018 0 0 1 16 39 778 0 ?33 31 246 247
 0 0 1 31 248 791 0 31 247 20 0 --.016 .006 -.018 0 -3469446951953615e-31 1 0 -1
 -3469446951953615e-31 .004 16 31 789 0 ?25 24 39 248 0 0 1 31 20 798 0 24 248 7
 0 --.016 -.006 -.018 0 -3469446951953615e-31 1 0 -1 -3469446951953615e-31 .004
 16 24 796 0 ?54 10 31 20 0 0 1 17 54 0 27 29 40 52 249 24 0 171 +15 27 89 0 40
 250 0 17 29 0 27 25 54 55 171 169 0 0 -17 40 0 27 54 251 26 36 146 0 249 +17 24
9 0 252 38 253 26 54 24 0 0 -17 171 0 254 243 240 52 29 169 0 253 +15 254 304 0
 171 255 0 17 243 0 254 174 171 49 253 241 0 256 +17 240 0 254 171 174 55 257 23
5 0 29 +17 253 0 252 249 51 52 243 241 0 0 -15 252 827 0 249 258 0 17 51 0 252 2
53 38 49 41 246 0 243 -17 38 0 252 51 249 34 33 39 0 0 -17 41 0 259 86 256 34 51
 246 0 37 +15 259 297 0 256 260 0 17 86 0 259 177 41 84 37 179 0 261 +17 256 0 2
59 41 48 49 174 172 0 0 -17 37 0 35 33 201 34 86 179 0 38 -17 201 0 35 37 128 84
 262 192 0 0 +17 128 0 35 201 122 91 145 203 0 262 +17 262 0 263 264 261 91 201
 192 0 0 -15 263 245 0 261 265 0 17 264 0 263 266 262 95 93 198 0 0 -17 261 0 26
3 262 266 84 177 168 0 201 -17 266 0 263 261 264 117 97 185 0 177 -17 177 0 259
 267 86 117 261 168 0 0 +17 267 0 259 48 177 42 119 175 0 268 -17 48 0 259 256 2
67 46 268 244 0 174 +17 119 0 269 97 23 117 267 175 0 266 +17 268 0 270 271 257
 42 48 244 0 0 -15 270 848 0 268 18 0 17 271 0 270 30 268 11 23 10 0 0 -17 257 0
 270 268 30 46 240 235 0 0 -17 30 0 270 257 271 55 25 31 0 240 -17 23 0 269 119
 32 42 271 10 0 267 +15 269 87 0 32 272 273 17 32 0 269 23 108 11 28 208 0 271 +
17 108 0 269 32 83 94 195 193 0 190 -17 28 0 27 251 25 94 32 208 0 0 -17 251 0 2
7 40 28 90 190 188 0 0 -17 190 0 274 195 100 94 251 188 0 28 +15 274 445 0 275 1
6 0 17 195 0 274 275 190 81 108 193 0 154 +17 100 0 274 190 275 90 276 147 0 36
 +17 275 0 274 100 195 75 154 151 0 276 -17 276 0 35 130 36 75 100 147 0 0 -16 1
47 437 0 ?100 129 144 148 129 129 1 17 36 0 35 276 33 90 40 146 0 251 -17 130 0
 35 123 276 66 77 136 0 131 -17 77 0 277 154 68 75 130 136 0 275 +17 131 0 278 2
79 65 66 123 132 0 0 -15 278 691 0 65 280 0 17 279 0 278 238 131 69 68 226 0 0 -
17 65 0 278 131 238 63 62 231 0 123 -17 238 0 278 65 279 60 281 236 0 0 +17 62 0
 133 59 124 60 65 231 0 282 +17 59 0 133 80 62 57 282 229 0 150 +17 282 0 283 28
1 284 60 59 229 0 238 -15 283 689 0 284 285 0 17 281 0 283 286 282 69 238 236 0
 279 -17 284 0 283 282 286 57 74 233 0 0 -17 286 0 283 284 281 72 71 221 0 0 -17
 74 0 269 83 150 72 284 233 0 287 +17 83 0 269 108 74 81 287 160 0 195 +17 150 0
 269 74 142 57 80 135 0 284 -17 287 0 277 71 154 72 83 160 0 286 -15 277 489 0 7
1 288 0 17 71 0 277 68 287 69 286 221 0 281 +17 154 0 277 287 77 81 275 151 0 0
 +17 68 0 277 77 71 66 279 226 0 130 +14 255 288 486 289 ?149 290 291 5 292 -0 0
 149 290 22 81 1 289 1059 293 288 294 0 0 295 296 14 149 494 295 ?297 288 298 5
 299 -0 0 297 288 22 14 290 389 300 ?288 255 301 5 302 -0 0 288 255 22 15 291 57
2 0 303 288 277 50 255 292 510 0 288 299 302 0 +.44 .01 -.004 0 0 1 1 0 0 13 22
 34 0 0 0 0 0 0 9 16 14 16 441 304 ?265 0 274 5 305 +140 140 265 0 22 81 1 304 1
068 293 16 306 0 300 307 308 14 265 246 307 ?272 16 263 5 309 -0 0 272 16 22 50
 305 3 0 140 310 309 0 +.42 0 0 1 0 0 0 0 -1 14 140 1 311 ?312 127 138 5 305 +16
 16 312 127 22 81 1 311 1074 293 140 313 0 307 314 315 14 312 186 314 ?316 140 3
17 5 310 -0 0 316 140 22 14 127 84 318 ?140 319 35 5 320 -0 0 140 319 22 81 1 31
8 1082 293 127 321 0 314 322 323 14 319 86 322 ?127 250 324 5 325 -0 0 127 250 2
2 50 320 91 0 127 309 325 0 +.42 -.01 .018 0 1 0 0 0 1 50 309 70 0 265 305 320 0
 +0 0 0 1 0 0 0 0 -1 50 325 92 0 319 320 326 0 +.42 .01 .018 0 1734723475976805e
-31 -1 0 1 1734723475976805e-31 50 326 93 0 272 325 327 0 +.42 .01 .018 0 -1 0 0
 0 -1 14 272 162 328 ?250 265 269 5 326 -0 0 250 265 22 50 327 94 0 250 326 329
 0 +.42 .01 -.018 0 -3469446951953615e-31 1 0 -1 -3469446951953615e-31 14 250 90
 330 ?319 272 331 5 327 -0 0 319 272 22 51 329 708 0 280 327 332 0 +.43 34694469
51953615e-33 0 0 0 1 .01 1 0 0 14 280 690 333 ?258 285 278 5 329 +0 0 258 285 22
 51 332 707 0 285 329 19 0 +.43 520417042793042e-32 0 0 0 -1 .01 -1 0 0 14 285 6
88 334 ?280 297 283 5 332 +0 0 280 297 22 51 19 838 0 258 332 6 0 +-.016 -.006 0
 0 0 -1 .004 -1 0 0 14 258 826 335 ?18 280 252 5 19 +0 0 18 280 22 81 1 335 1103
 293 258 336 0 334 337 338 14 18 847 337 ?0 258 270 5 6 +0 0 0 258 22 81 1 337 1
106 293 18 339 0 335 340 341 80 7 CCCCCDI12 legal_owners0 16 1 lCZ1 293 342 343
 9000 1 1 1 1 1 1 1 1 0 FFFFTFTFFFFFFFFF1 81 3 339 1104 344 18 345 337 336 346 3
47 0 0 81 1 340 1109 293 297 346 0 337 348 349 82 255 1 341 1101398144 14 297 58
6 340 ?285 149 350 5 351 -0 0 285 149 22 81 3 346 1107 344 297 352 340 339 353 3
54 0 0 81 1 348 1112 293 255 353 0 340 355 356 82 1 349 -106037124 14 255 302 34
8 ?290 260 254 5 357 +0 0 290 260 22 81 3 353 1110 344 255 358 348 346 359 360 0
 0 81 1 355 1115 293 260 359 0 348 361 362 82 1 356 -475463552 14 260 294 355 ?2
55 363 364 5 365 -0 0 255 363 22 81 3 359 1113 344 260 366 355 353 367 368 0 0 8
1 1 361 1118 293 363 367 0 355 369 370 82 1 362 -468647808 14 363 193 361 ?260 3
16 371 5 372 -0 0 260 316 22 81 3 367 1116 344 363 373 361 359 374 375 0 0 81 1
 369 1121 293 316 374 0 361 0 376 82 1 370 239075439 14 316 190 369 ?363 312 377
 5 378 +0 0 363 312 22 81 3 374 1119 344 316 379 369 367 0 380 0 0 82 1 376 2400
58479 80 3 344 381 382 9000 0 0 0 0 3 5 0 0 0 FFFFTFFFFFFFFFFF1 1 1 81 1 379 104
4 383 316 0 374 384 373 385 82 6 380 0 -1430791711 31158246 0 0 0 80 1 383 0 386
 8001 0 0 0 0 3 5 0 0 0 FFFFTFTFFFFFFFFF2 81 1 384 1043 383 312 0 387 388 379 38
9 81 1 373 1045 383 363 0 367 379 366 390 83 255 3 385 .792156862745098 .8196078
43137255 .933333333333333 81 1 366 1046 383 260 0 359 373 358 391 83 3 390 .7921
56862745098 .819607843137255 .933333333333333 81 1 358 1047 383 255 0 353 366 39
2 393 83 3 391 .792156862745098 .819607843137255 .933333333333333 81 1 392 1048
 383 290 0 394 358 395 396 83 3 393 .792156862745098 .819607843137255 .933333333
333333 81 3 394 1063 344 290 392 300 397 306 398 0 0 81 1 395 1049 383 288 0 294
 392 399 400 83 3 396 .792156862745098 .819607843137255 .933333333333333 81 3 29
4 1057 344 288 395 289 0 397 401 0 0 81 1 399 1050 383 149 0 397 395 352 402 83
 3 400 .792156862745098 .819607843137255 .933333333333333 81 3 397 1060 344 149
 399 295 294 394 403 0 0 81 1 352 1051 383 297 0 346 399 404 405 83 3 402 .79215
6862745098 .819607843137255 .933333333333333 81 1 404 1052 383 285 0 406 352 407
 408 83 3 405 .792156862745098 .819607843137255 .933333333333333 81 3 406 1098 3
44 285 404 334 409 336 410 0 0 81 1 407 1053 383 280 0 409 404 411 412 83 3 408
 .792156862745098 .819607843137255 .933333333333333 81 3 409 1095 344 280 407 33
3 413 406 414 0 0 81 1 411 1054 383 258 0 336 407 345 415 83 3 412 .792156862745
098 .819607843137255 .933333333333333 81 3 336 1101 344 258 411 335 406 339 416
 0 0 81 1 345 1055 383 18 0 339 411 0 417 83 3 415 .792156862745098 .81960784313
7255 .933333333333333 83 3 417 .792156862745098 .819607843137255 .93333333333333
3 82 6 416 0 1226540353 31158248 0 0 0 81 1 333 1097 293 280 409 0 330 334 418 8
1 3 413 1091 344 250 419 330 420 409 421 0 0 82 6 414 0 815619822 31158248 0 0 0
 81 1 419 1039 383 250 0 413 422 423 424 81 1 330 1094 293 250 413 0 328 333 425
 81 3 420 1086 344 272 422 328 426 413 427 0 0 82 6 421 0 1226540353 31158248 0
 0 0 81 1 422 1038 383 272 0 420 428 419 429 81 1 328 1090 293 272 420 0 322 330
 430 81 3 426 1083 344 319 423 322 321 420 431 0 0 82 6 427 0 1226540353 3115824
8 0 0 0 81 1 423 1040 383 319 0 426 419 432 433 81 1 322 1085 293 319 426 0 318
 328 434 81 3 321 1078 344 127 432 318 387 426 435 0 0 82 6 431 0 484734168 3115
8246 0 0 0 81 1 432 1041 383 127 0 321 423 388 436 81 3 387 1075 344 312 384 314
 313 321 437 0 0 82 6 435 0 1226540353 31158248 0 0 0 81 1 314 1077 293 312 387
 0 311 318 438 81 3 313 1072 344 140 388 311 439 387 440 0 0 82 6 437 0 -1430791
711 31158246 0 0 0 81 1 388 1042 383 140 0 313 432 384 441 81 3 439 1070 344 265
 428 307 306 313 442 0 0 82 6 440 0 -507565929 31158247 0 0 0 81 1 428 1037 383
 265 0 439 443 422 444 81 1 307 1071 293 265 439 0 304 311 445 81 3 306 1067 344
 16 443 304 394 439 446 0 0 82 6 442 0 1234632240 31158247 0 0 0 81 1 443 1036 3
83 16 0 306 0 428 447 82 6 446 0 -507565929 31158247 0 0 0 83 3 447 .79215686274
5098 .819607843137255 .933333333333333 82 1 445 -456458125 83 3 444 .79215686274
5098 .819607843137255 .933333333333333 83 3 441 .792156862745098 .81960784313725
5 .933333333333333 82 1 438 240648303 83 3 436 .792156862745098 .819607843137255
 .933333333333333 82 1 434 -1339883417 83 3 433 .792156862745098 .81960784313725
5 .933333333333333 82 1 430 238026880 83 3 429 .792156862745098 .819607843137255
 .933333333333333 82 1 425 -1339359104 83 3 424 .792156862745098 .81960784313725
5 .933333333333333 81 1 334 1100 293 285 406 0 333 335 448 82 1 418 531759230 82
 1 448 533266558 82 6 410 0 815619822 31158248 0 0 0 81 1 295 1062 293 149 397 0
 289 300 449 82 6 403 0 815619822 31158248 0 0 0 81 1 300 1065 293 290 394 0 295
 304 450 82 1 449 1271201918 82 1 450 -687275914 82 6 401 0 815619822 31158248 0
 0 0 82 6 398 0 -1657232507 31158247 0 0 0 83 3 389 .792156862745098 .8196078431
37255 .933333333333333 79 255 15 386 SDL/TYSA_COLOUR79 18 382 DOWNSTREAM_FACE_ID
15 377 192 0 110 316 0 50 378 210 0 316 365 372 0 +.01 .01 3469446951953615e-33
 1 0 0 0 0 -1 50 365 312 0 260 357 378 0 +-.02 .01 -.01 0 -1734723475976805e-31
 -1 0 1 -1734723475976805e-31 50 372 209 0 363 378 310 0 +.41 .01 34694469519536
15e-33 1 0 0 0 0 -1 51 310 208 0 312 372 305 0 +.01 .01 3469446951953615e-33 1 0
 0 .015 0 0 -1 50 357 315 0 255 302 365 0 +-.02 0 0 -1 0 0 0 0 1 51 302 407 0 29
0 292 357 0 +-.01 260208521396521e-32 -.03 0 0 1 .005 1 0 0 17 110 0 377 184 184
 98 451 219 0 452 +17 184 0 377 110 110 111 452 182 0 451 +17 451 0 273 218 215
 111 110 219 0 0 -17 452 0 317 453 113 98 184 182 0 215 -15 317 189 0 452 312 0
 17 453 0 317 187 452 87 215 213 0 212 -17 113 0 317 452 187 111 218 216 0 184 -
17 215 0 273 451 212 98 453 213 0 0 +15 273 160 0 451 272 0 17 212 0 273 215 218
 87 116 210 0 0 +17 218 0 273 212 451 114 113 216 0 0 +17 116 0 371 89 89 114 21
2 210 0 187 -15 371 195 0 89 363 0 17 89 0 371 116 116 87 187 181 0 453 -17 187
 0 317 113 453 114 89 181 0 218 +82 6 375 0 -1430791711 31158246 0 0 0 82 6 368
 0 1226540353 31158248 0 0 0 15 364 368 0 454 260 259 17 454 0 364 454 454 0 164
 162 0 0 -17 164 0 301 164 164 0 454 162 0 0 +15 301 392 0 164 290 455 15 455 39
3 0 456 290 0 17 456 0 455 456 456 0 167 165 0 0 -17 167 0 331 167 167 0 456 165
 0 0 +15 331 375 0 167 250 27 82 6 360 0 1226540353 31158248 0 0 0 82 6 354 0 43
9195494 31158248 0 0 0 15 350 589 0 457 297 458 51 351 604 0 297 0 299 0 +.43 26
0208521396521e-32 .016 0 0 -1 .005 -1 0 0 50 299 512 0 149 351 292 0 +.44 .01 .0
04 0 0 -1 -1 0 0 17 457 0 350 457 457 0 303 224 0 0 +15 458 590 0 459 297 0 17 4
59 0 458 459 459 0 223 155 0 0 -17 223 0 298 223 223 0 459 155 0 0 +15 298 565 0
 223 149 133 17 303 0 291 303 303 0 457 224 0 0 -16 224 583 0 ?457 155 236 157 0
 0 1 31 157 607 0 224 0 156 0 +.43 260208521396521e-32 -.004 0 0 -1 -1 0 0 .005
 82 6 347 0 1226540353 31158248 0 0 0 79 14 343 SWEntUnchanged82 1 338 109943206
4 15 324 85 0 93 319 0 17 93 0 324 145 207 91 264 198 0 128 +17 145 0 324 143 93
 101 128 203 0 122 -17 207 0 324 93 143 95 460 205 0 264 +17 143 0 324 207 145 1
04 103 144 0 0 -17 460 0 269 142 97 104 207 205 0 143 -17 142 0 269 150 460 78 1
06 191 0 0 -17 97 0 269 460 119 95 266 185 0 207 +17 106 0 138 103 139 104 142 1
91 0 460 +16 191 431 0 ?106 193 188 189 193 193 1 82 1 323 -1340145536 82 1 315
 -1346699143 82 1 308 1284046969 82 1 296 1271726206 17 174 0 254 240 243 46 256
 172 0 257 +19 17 100 0 1 0 9 5 0 S0 74 4 CI16 index_map_offset0 0 1 dCCZ20 15 1
0 0 0 374 369 461 462 463 464 465 13 345 2 0 0 0 0 0 0 0 0 0 0 81 2 461 539 466
 1 0 462 0 0 0 467 81 2 462 549 468 1 461 463 0 0 0 469 81 2 463 550 470 1 462 4
64 0 0 471 0 81 2 464 730 472 1 463 465 0 0 0 0 81 1 465 878 473 1 464 13 0 0 47
4 81 2 13 900 475 1 465 2 0 0 476 0 80 2 475 477 478 8004 0 0 0 0 3 5 0 0 0 FFTF
FFFFFFFFFFFF2 3 83 1 476 1 79 16 478 SDL/TYSA_DENSITY80 1 473 479 480 9000 1 1 1
 1 1 1 1 1 0 FFTFFFFFFFFFFFFF1 82 1 474 176057 79 10 480 BODY_MATCH80 2 472 481
 482 9000 0 0 0 0 3 5 0 0 0 FFTFFFFFFFFFFFFF9 1 79 16 482 BODY_RECIPE_200180 2 4
70 483 484 9000 0 0 0 0 3 5 0 0 0 FFTFTTTFFTFFFFFF10 10 98 255 7 471 70 105 108
 108 101 116 50 79 23 484 SWIMPLICITBODYNAME_ID_U80 2 468 485 486 9000 0 0 0 0 3
 5 0 0 0 FFTFFFFFFFFFFFFF9 1 82 1 469 90 79 30 486 LAST_BODY_MODIFYING_FEATURE_I
D80 2 466 487 488 9000 0 0 0 0 3 5 0 0 0 FFTFFFFFFFFFFFFF9 1 82 1 467 117 79 19
 488 ENT_TIME_STAMP_200180 2 12 489 490 9000 0 0 0 0 3 5 0 0 0 FFTFFFFFFFFFFFFF9
 1 82 1 14 106 79 12 490 ATOM_ID_20011 0 
