**ABCDEFGHIJKLMNOPQRSTUVWXYZabcdefghijklmnopqrstuvwxyz**************************
**PARASOLID !"#$%&'()*+,-./:;<=>?@[\]^_`{|}~0123456789**************************
**PART1;
MC=AMD64;
MC_MODEL=Intel64 Family 6 Model 69 Stepping 1, GenuineIntel;
MC_ID=unknown;
OS=Windows_NT;
OS_RELEASE=unknown;
FRU=Parasolid Version 35.1, build 251, 11- 4-2023;
APPL=SOLIDWORKS 2024-2024016;
SITE=;
USER=unknown;
FORMAT=text;
GUISE=transmit;
KEY=stand;
FILE=stand.x_t;
DATE=Sun Jan 26 14:17:04 2025;
**PART2;
SCH=SCH_3501251_35102;
USFLD_SIZE=0;
**PART3;
**END_OF_HEADER*****************************************************************
T51 : TRANSMIT FILE created by modeller version 350125123 SCH_3501251_35102_1300
6231 0 12 36 CCCI7 lattice222 0 CCCI4 mesh1006 0 I8 polyline1008 0 CCCCCCCDI5 ow
ner1040 0 CCCI16 boundary_lattice222 0 CCCI13 boundary_mesh1006 0 I17 boundary_p
olyline1008 0 CCCA16 index_map_offset0 0 1 dA9 index_map82 0 A17 node_id_index_m
ap82 0 A20 schema_embedding_map82 0 A5 child12 0 A14 lowest_node_id0 0 1 dA16 me
sh_offset_data206 0 Z1 286 2 3 0 0 0 0 0 0 0 1e3 1e-8 0 4 0 1 0 1 1 5 0 6 7 8 0
 0 9 10 11 0 0 0 0 0 0 0 81 255 2 2 270 12 1 13 0 0 0 0 14 70 11 CI9 list_type0
 0 1 uI10 notransmit0 0 1 lCCCDCCDI12 finger_index0 0 1 dI12 finger_block1012 0
 CZ3 0 4 T1 0 0 11 20 1 15 15 13 255 5 99 0 1 0 16 0 0 17 0 50 255 6 94 0 16 18
 0 0 +.01 .005 .16 -1 -3469446951953615e-31 0 3469446951953615e-31 -1 0 31 255 7
 151 0 10 19 0 0 --693889390390723e-32 -.005 .1 0 1 0 0 0 1 .0025 29 255 8 75 0
 20 21 0 .01 -.005 0 19 9 CCCCCCI5 frame230 0 CA5 owner12 0 Z9 33 0 1 17 0 22 0
 V0 16 255 10 148 0 ?23 0 24 7 0 0 1 18 255 11 30 0 25 0 26 27 ?1 17 255 25 0 28
 29 30 11 31 32 0 33 +18 26 27 0 30 11 34 35 ?1 29 27 32 0 11 35 36 .01 -.005 .1
6 29 35 29 0 26 37 27 -.01 -.005 .16 29 36 78 0 38 27 39 .01 .005 0 18 38 69 0 4
0 41 0 36 ?1 29 39 77 0 41 36 21 -.01 .005 0 18 41 68 0 42 43 38 39 ?1 29 21 76
 0 43 39 8 -.01 -.005 0 18 43 67 0 44 20 41 21 ?1 17 44 0 45 46 47 43 48 49 0 50
 +18 20 66 0 51 52 43 8 ?1 17 51 0 53 33 50 20 54 55 0 56 +18 52 21 0 57 34 20 5
8 ?1 17 57 0 59 60 61 52 62 63 0 29 -18 34 24 0 62 26 52 37 ?1 29 58 23 0 52 0 3
7 .01 .005 .16 29 37 26 0 34 58 35 -.01 .005 .16 17 62 0 28 30 29 34 57 63 0 61
 +15 255 28 4 0 29 64 0 17 30 0 28 25 62 26 65 66 0 46 +17 29 0 28 62 25 52 67 6
8 0 69 +16 63 9 0 ?62 66 68 70 0 0 1 17 61 0 59 57 42 34 47 71 0 65 -15 59 87 0
 42 72 0 17 42 0 59 61 60 41 40 73 0 47 +17 47 0 45 44 65 41 61 71 0 48 +16 71 8
1 0 ?47 24 74 75 0 0 1 17 65 0 45 47 46 34 30 66 0 0 -15 45 85 0 44 76 0 17 46 0
 45 65 44 26 50 74 0 31 -16 66 13 0 ?30 32 63 77 0 0 1 16 32 17 0 ?25 78 66 79 0
 0 1 30 255 77 15 0 66 70 79 0 +-.01 .005 .16 1734723475976805e-31 -1 0 30 70 11
 0 63 80 77 0 +-.01 .005 .16 -1 0 0 30 79 19 0 32 77 81 0 +-.01 -.005 .16 1 0 0
 30 81 74 0 82 79 83 0 +.01 .005 0 -3469446951953615e-31 1 0 16 82 62 0 ?84 73 8
5 81 0 0 1 30 83 73 0 73 81 86 0 +-.01 .005 0 -1 0 0 16 73 58 0 ?42 49 82 83 0 0
 1 30 86 72 0 49 83 87 0 +-.01 .005 0 1734723475976805e-31 -1 0 16 49 54 0 ?44 5
5 73 86 0 0 1 30 87 71 0 55 86 88 0 +-.01 -.005 0 1 0 0 16 55 50 0 ?51 68 49 87
 0 0 1 30 88 95 0 78 87 89 0 +.01 -.005 .16 0 0 -1 16 78 79 0 ?56 74 32 88 0 0 1
 30 89 96 0 74 88 75 0 +-.01 -.005 .16 0 0 -1 16 74 80 0 ?50 71 78 89 0 0 1 30 7
5 97 0 71 89 19 0 +-.01 .005 .16 0 0 -1 30 19 98 0 24 75 7 0 +.01 .005 .16 0 0 -
1 16 24 82 0 ?60 10 71 19 0 0 1 17 60 0 59 42 57 38 69 24 0 84 +17 69 0 90 67 84
 52 60 24 0 0 -17 84 0 90 69 56 38 91 82 0 0 +15 90 89 0 84 16 0 17 56 0 90 84 6
7 20 33 78 0 91 +17 91 0 92 54 40 20 84 82 0 0 -15 92 49 0 91 93 0 17 54 0 92 48
 91 43 51 55 0 0 -17 40 0 92 91 48 38 42 73 0 60 -17 48 0 92 40 54 41 44 49 0 0
 -14 255 93 48 94 ?95 64 92 5 96 -0 0 95 64 22 81 1 94 272 97 93 98 0 0 99 100 1
4 95 163 99 ?101 93 102 5 103 -0 0 101 93 22 14 64 1 104 ?93 105 28 5 106 +0 0 9
3 105 22 50 96 70 0 93 106 107 0 +0 0 0 0 0 1 1 0 0 13 22 34 0 0 0 0 0 0 9 16 14
 16 90 108 ?72 0 90 5 6 -0 0 72 0 22 81 1 108 278 97 16 109 0 104 110 111 14 72
 88 110 ?76 16 59 5 18 -0 0 76 16 22 81 1 110 280 97 72 112 0 108 113 114 14 76
 86 113 ?105 72 45 5 115 -0 0 105 72 22 50 18 93 0 72 115 6 0 +-.01 .005 .16 0 -
1 0 0 0 -1 50 115 92 0 76 107 18 0 +-.01 .005 .16 1 1734723475976805e-31 0 -1734
723475976805e-31 1 0 50 107 91 0 105 96 115 0 +-.01 -.005 .16 0 1 0 0 0 1 14 105
 84 116 ?64 76 117 5 107 -0 0 64 76 22 81 1 116 284 97 105 118 0 113 119 120 15
 117 150 0 121 105 53 17 121 0 117 121 121 0 23 10 0 0 -15 53 83 0 51 105 0 17 2
3 0 122 23 23 0 121 10 0 0 +15 122 167 0 23 95 0 80 7 CCCCCDI12 legal_owners0 16
 1 lCZ1 97 123 124 9000 1 1 1 1 1 1 1 1 0 FFFFTFTFFFFFFFFF1 81 3 118 283 125 105
 126 116 127 128 129 0 0 81 1 113 282 97 76 127 0 110 116 130 81 1 119 286 97 10
1 128 0 116 0 131 82 255 1 120 1459290224 14 101 168 119 ?0 95 132 5 133 +0 0 0
 95 22 81 3 128 285 125 101 134 119 118 0 135 0 0 82 1 131 1018757232 80 3 125 1
36 137 9000 0 0 0 0 3 5 0 0 0 FFFFTFFFFFFFFFFF1 1 1 81 1 134 244 138 101 0 128 1
39 0 140 82 6 135 0 1939120183 31158202 0 0 0 80 1 138 0 141 8001 0 0 0 0 3 5 0
 0 0 FFFFTFTFFFFFFFFF2 81 1 139 243 138 95 0 142 143 134 144 83 255 3 140 .79215
6862745098 .819607843137255 .933333333333333 81 3 142 273 125 95 139 99 98 145 1
46 0 0 81 1 143 242 138 93 0 98 147 139 148 83 3 144 .792156862745098 .819607843
137255 .933333333333333 81 3 98 271 125 93 143 94 0 142 149 0 0 81 1 147 241 138
 64 0 145 126 143 150 83 3 148 .792156862745098 .819607843137255 .93333333333333
3 81 3 145 275 125 64 147 104 142 109 151 0 0 81 1 126 240 138 105 0 118 152 147
 153 83 3 150 .792156862745098 .819607843137255 .933333333333333 81 1 152 239 13
8 76 0 127 154 126 155 83 3 153 .792156862745098 .819607843137255 .9333333333333
33 81 3 127 281 125 76 152 113 112 118 156 0 0 81 1 154 238 138 72 0 112 157 152
 158 83 3 155 .792156862745098 .819607843137255 .933333333333333 81 3 112 279 12
5 72 154 110 109 127 159 0 0 81 1 157 237 138 16 0 109 0 154 160 83 3 158 .79215
6862745098 .819607843137255 .933333333333333 81 3 109 277 125 16 157 108 145 112
 161 0 0 83 3 160 .792156862745098 .819607843137255 .933333333333333 82 6 161 0
 -237164448 31158201 0 0 0 82 6 159 0 -237164448 31158201 0 0 0 82 6 156 0 -2371
64448 31158201 0 0 0 81 1 104 276 97 64 145 0 99 108 162 82 6 151 0 -237164448 3
1158201 0 0 0 81 1 99 274 97 95 142 0 94 104 163 82 1 162 1452736621 82 1 163 10
21247600 82 6 149 0 -237164448 31158201 0 0 0 82 6 146 0 1939120183 31158202 0 0
 0 79 255 15 141 SDL/TYSA_COLOUR79 18 137 DOWNSTREAM_FACE_ID15 132 171 0 164 101
 0 50 133 180 0 101 0 103 0 +0 -.015 0 0 -1 0 0 0 -1 51 255 103 178 0 95 133 106
 0 --693889390390723e-32 -.015 .1 0 1 0 .0025 0 0 1 50 106 3 0 64 103 96 0 +0 0
 .16 0 0 1 1 0 0 17 164 0 132 164 164 0 165 85 0 0 +17 165 0 102 165 165 0 164 8
5 0 0 -16 85 160 0 ?164 82 0 166 0 0 1 31 166 182 0 85 0 80 0 +-693889390390723e
-32 -.015 .1 0 -1 0 0 0 -1 .0025 30 80 7 0 68 166 70 0 +.01 .005 .16 -3469446951
953615e-31 1 0 16 68 5 0 ?29 63 55 80 0 0 1 15 102 166 0 165 95 122 82 1 130 145
9552365 82 6 129 0 1939120183 31158202 0 0 0 79 14 124 SWEntUnchanged82 1 114 14
59814509 82 1 111 1460076653 82 1 100 1458372717 17 67 0 90 56 69 11 29 68 0 0 -
17 33 0 53 31 51 11 56 78 0 67 -17 31 0 53 50 33 26 25 32 0 0 -17 50 0 53 51 31
 43 46 74 0 54 +19 17 100 0 1 0 9 5 0 S0 74 4 CI16 index_map_offset0 0 1 dCCZ20
 15 11 0 0 128 119 167 168 169 170 171 172 13 134 2 0 0 0 0 0 0 0 0 0 81 2 167 1
43 173 1 0 168 0 0 0 0 81 5 168 155 174 1 167 169 0 0 175 0 0 0 0 81 2 169 185 1
76 1 168 170 0 0 0 177 81 2 170 191 178 1 169 171 0 0 0 179 81 2 171 192 180 1 1
70 172 0 0 181 0 81 1 172 196 182 1 171 13 0 0 183 81 2 13 206 184 1 172 2 0 0 1
85 0 80 2 184 186 187 8004 0 0 0 0 3 5 0 0 0 FFTFFFFFFFFFFFFF2 3 83 1 185 1 79 1
6 187 SDL/TYSA_DENSITY80 1 182 188 189 9000 1 1 1 1 1 1 1 1 0 FFTFFFFFFFFFFFFF1
 82 1 183 22165 79 10 189 BODY_MATCH80 2 180 190 191 9000 0 0 0 0 3 5 0 0 0 FFTF
TTTFFTFFFFFF10 10 98 255 13 181 66 111 115 115 45 69 120 116 114 117 100 101 50
 79 23 191 SWIMPLICITBODYNAME_ID_U80 2 178 192 193 9000 0 0 0 0 3 5 0 0 0 FFTFFF
FFFFFFFFFF9 1 82 1 179 53 79 30 193 LAST_BODY_MODIFYING_FEATURE_ID80 2 176 194 1
95 9000 0 0 0 0 3 5 0 0 0 FFTFFFFFFFFFFFFF9 1 82 1 177 109 79 19 195 ENT_TIME_ST
AMP_200180 5 174 196 197 9000 0 0 0 0 3 6 0 0 0 FFTTTTTTFTTFTTFF2 2 2 2 2 83 1 1
75 1 79 19 197 BODY_SCALING_FACTOR80 2 173 198 199 9000 0 0 0 0 3 5 0 0 0 FFTFFF
FFFFFFFFFF9 1 79 16 199 BODY_RECIPE_200180 2 12 200 201 9000 0 0 0 0 3 5 0 0 0 F
FTFFFFFFFFFFFFF9 1 82 1 14 102 79 12 201 ATOM_ID_20011 0 
